<svg id="exz1lWsLZrB1" xmlns="http://www.w3.org/2000/svg" xmlns:xlink="http://www.w3.org/1999/xlink" viewBox="0 0 1024 768" shape-rendering="geometricPrecision" text-rendering="geometricPrecision">
<style><![CDATA[
#exz1lWsLZrB6_to {animation: exz1lWsLZrB6_to__to 2000ms linear infinite normal forwards}@keyframes exz1lWsLZrB6_to__to { 0% {transform: translate(-8.676708px,445.627017px)} 50% {transform: translate(-8.676708px,445.627017px);animation-timing-function: cubic-bezier(0.495,0,1,1)} 75% {transform: translate(-3.75px,112.96px)} 100% {transform: translate(-3.75px,112.96px)}} #exz1lWsLZrB6_ts {animation: exz1lWsLZrB6_ts__ts 2000ms linear infinite normal forwards}@keyframes exz1lWsLZrB6_ts__ts { 0% {transform: scale(0.6,0.55)} 50% {transform: scale(0.6,0.55);animation-timing-function: cubic-bezier(0.495,0,1,1)} 75% {transform: scale(0.85,0.782609)} 100% {transform: scale(0.85,0.782609)}} #exz1lWsLZrB11_to {animation: exz1lWsLZrB11_to__to 2000ms linear infinite normal forwards}@keyframes exz1lWsLZrB11_to__to { 0% {transform: translate(374.998941px,519.614043px)} 50% {transform: translate(374.998941px,519.614043px);animation-timing-function: cubic-bezier(0.495,0,1,1)} 75% {transform: translate(-25px,519.61499px)} 100% {transform: translate(-25px,519.61499px)}} #exz1lWsLZrB13_to {animation: exz1lWsLZrB13_to__to 2000ms linear infinite normal forwards}@keyframes exz1lWsLZrB13_to__to { 0% {transform: translate(-243.750091px,545.033985px)} 50% {transform: translate(-243.750091px,545.033985px);animation-timing-function: cubic-bezier(0.495,0,1,1)} 75% {transform: translate(-195.394489px,546.076831px)} 100% {transform: translate(-195.394489px,546.076831px)}} #exz1lWsLZrB20_to {animation: exz1lWsLZrB20_to__to 2000ms linear infinite normal forwards}@keyframes exz1lWsLZrB20_to__to { 0% {transform: translate(-3.75px,112.96px)} 50% {transform: translate(-3.75px,112.96px);animation-timing-function: cubic-bezier(0,0,0.495,1)} 75% {transform: translate(29.966843px,-122.340581px)} 100% {transform: translate(29.966843px,-122.340581px)}} #exz1lWsLZrB20_ts {animation: exz1lWsLZrB20_ts__ts 2000ms linear infinite normal forwards}@keyframes exz1lWsLZrB20_ts__ts { 0% {transform: scale(0.85,0.782609)} 50% {transform: scale(0.85,0.782609);animation-timing-function: cubic-bezier(0,0,0.495,1)} 75% {transform: scale(0.6,0.55)} 100% {transform: scale(0.6,0.55)}} #exz1lWsLZrB25_to {animation: exz1lWsLZrB25_to__to 2000ms linear infinite normal forwards}@keyframes exz1lWsLZrB25_to__to { 0% {transform: translate(-25px,519.61499px)} 50% {transform: translate(-25px,519.61499px);animation-timing-function: cubic-bezier(0,0,0.495,1)} 75% {transform: translate(374.998942px,519.614042px)} 100% {transform: translate(374.998942px,519.614042px)}} #exz1lWsLZrB27_to {animation: exz1lWsLZrB27_to__to 2000ms linear infinite normal forwards}@keyframes exz1lWsLZrB27_to__to { 0% {transform: translate(-195.394489px,546.076831px)} 50% {transform: translate(-195.394489px,546.076831px);animation-timing-function: cubic-bezier(0,0,0.495,1)} 75% {transform: translate(-243.750092px,545.033985px)} 100% {transform: translate(-243.750092px,545.033985px)}} #exz1lWsLZrB36_to {animation: exz1lWsLZrB36_to__to 2000ms linear infinite normal forwards}@keyframes exz1lWsLZrB36_to__to { 0% {transform: translate(-147.499599px,517.261474px)} 25% {transform: translate(-148.751661px,450.193393px)} 50% {transform: translate(-147.499599px,517.261474px)} 75% {transform: translate(-149.788463px,590.414074px)} 100% {transform: translate(-147.499599px,517.261474px)}} #exz1lWsLZrB65_to {animation: exz1lWsLZrB65_to__to 2000ms linear infinite normal forwards}@keyframes exz1lWsLZrB65_to__to { 0% {transform: translate(-110.109131px,519.094406px)} 50% {transform: translate(179.036962px,518.708602px)} 100% {transform: translate(-110.109131px,519.094406px)}} #exz1lWsLZrB81_to {animation: exz1lWsLZrB81_to__to 2000ms linear infinite normal forwards}@keyframes exz1lWsLZrB81_to__to { 0% {transform: translate(48px,886px)} 50% {transform: translate(-190.662896px,887.098688px)} 100% {transform: translate(48px,886px)}}
]]></style>
<defs><linearGradient id="exz1lWsLZrB13-fill" x1="10.605" y1="-12.245" x2="-10.604" y2="12.2451" spreadMethod="pad" gradientUnits="userSpaceOnUse" gradientTransform="translate(0 0)"><stop id="exz1lWsLZrB13-fill-0" offset="0%" stop-color="#00b6ff"/><stop id="exz1lWsLZrB13-fill-1" offset="100%" stop-color="#00ff8c"/></linearGradient><linearGradient id="exz1lWsLZrB27-fill" x1="10.605" y1="-12.245" x2="-10.604" y2="12.2451" spreadMethod="pad" gradientUnits="userSpaceOnUse" gradientTransform="translate(0 0)"><stop id="exz1lWsLZrB27-fill-0" offset="0%" stop-color="#00b6ff"/><stop id="exz1lWsLZrB27-fill-1" offset="100%" stop-color="#00ff8c"/></linearGradient><linearGradient id="exz1lWsLZrB56-fill" x1="-170" y1="476.314" x2="-190" y2="476.314002" spreadMethod="pad" gradientUnits="userSpaceOnUse" gradientTransform="translate(0 0)"><stop id="exz1lWsLZrB56-fill-0" offset="0%" stop-color="#00b6ff"/><stop id="exz1lWsLZrB56-fill-1" offset="100%" stop-color="#00ff8c"/></linearGradient><linearGradient id="exz1lWsLZrB81-fill" x1="90" y1="883.346" x2="-50" y2="943.96775" spreadMethod="pad" gradientUnits="userSpaceOnUse" gradientTransform="translate(0 0)"><stop id="exz1lWsLZrB81-fill-0" offset="0%" stop-color="#00b6ff"/><stop id="exz1lWsLZrB81-fill-1" offset="100%" stop-color="#00ff8c"/></linearGradient></defs><g transform="matrix(.866025-.5 0.92 0.531162 215.819-83.8463)" clip-rule="evenodd"><path d="M175,415.166c0-2.354-1.541-3.804-4.041-3.804-38.68,0-342.989,0-389.897,0-1.25,0-2.791.725-4.041,1.902-1.251,1.177-2.021,2.628-2.021,3.805c0,31.246,0,181.134,0,206.995c0,2.354,1.541,3.804,4.041,3.804c38.68,0,342.989,0,389.897,0c1.25,0,2.791-.725,4.041-1.902c1.251-1.177,2.021-2.627,2.021-3.804c0-31.246,0-181.135,0-206.996Z" clip-rule="evenodd" fill="#2f2f2f" fill-rule="evenodd" stroke-linejoin="round" stroke-miterlimit="2"/><g clip-path="url(#exz1lWsLZrB16)" clip-rule="evenodd"><g><g id="exz1lWsLZrB6_to" transform="translate(-8.676708,445.627017)"><g id="exz1lWsLZrB6_ts" transform="scale(0.6,0.55)"><g transform="translate(0,0)" clip-rule="evenodd"><path d="M175,416.223c0-3.008-1.812-4.861-4.755-4.861-41.247,0-338.139,0-388.113,0-1.471,0-3.284.927-4.755,2.431s-2.377,3.357-2.377,4.861c0,33.963,0,176.183,0,204.353c0,3.008,1.812,4.861,4.755,4.861c41.247,0,338.139,0,388.113,0c1.471,0,3.284-.926,4.755-2.43s2.377-3.357,2.377-4.861c0-33.963,0-176.184,0-204.354Z" clip-rule="evenodd" fill="#4d4d4d" fill-rule="evenodd" stroke-linejoin="round" stroke-miterlimit="2"/><g clip-path="url(#exz1lWsLZrB14)" clip-rule="evenodd"><g><g transform="matrix(.852941 0 0 1 25.7353 0)" clip-rule="evenodd"><g id="exz1lWsLZrB11_to" transform="translate(374.998941,519.614043)"><path d="M175,416.223c0-3.008-2.125-4.861-5.574-4.861-43.851,0-332.991,0-386.064,0-1.725,0-3.85.927-5.575,2.431s-2.787,3.357-2.787,4.861c0,33.963,0,176.183,0,204.353c0,3.008,2.125,4.861,5.574,4.861c43.851,0,332.991,0,386.064,0c1.725,0,3.85-.926,5.575-2.43s2.787-3.357,2.787-4.861c0-33.963,0-176.184,0-204.354Z" transform="translate(25,-519.61499)" clip-rule="evenodd" fill="#666" fill-rule="evenodd" stroke-linejoin="round" stroke-miterlimit="2"/></g></g><g transform="matrix(1.17647 0 0 0.986842 33.8235-24.8159)" clip-rule="evenodd"><g id="exz1lWsLZrB13_to" transform="translate(-243.750091,545.033985)"><ellipse rx="15" ry="17.321" transform="translate(0,-0.000008)" clip-rule="evenodd" fill="url(#exz1lWsLZrB13-fill)" fill-rule="evenodd" stroke-linejoin="round" stroke-miterlimit="2"/></g></g></g><clipPath id="exz1lWsLZrB14"><path d="M175,416.223c0-3.008-1.812-4.861-4.755-4.861-41.247,0-338.139,0-388.113,0-1.471,0-3.284.927-4.755,2.431s-2.377,3.357-2.377,4.861c0,33.963,0,176.183,0,204.353c0,3.008,1.812,4.861,4.755,4.861c41.247,0,338.139,0,388.113,0c1.471,0,3.284-.926,4.755-2.43s2.377-3.357,2.377-4.861c0-33.963,0-176.184,0-204.354Z" clip-rule="evenodd" fill-rule="evenodd" stroke-linejoin="round" stroke-miterlimit="2"/></clipPath></g></g></g></g></g><clipPath id="exz1lWsLZrB16"><path d="M175,415.166c0-2.354-1.541-3.804-4.041-3.804-38.68,0-342.989,0-389.897,0-1.25,0-2.791.725-4.041,1.902-1.251,1.177-2.021,2.628-2.021,3.805c0,31.246,0,181.134,0,206.995c0,2.354,1.541,3.804,4.041,3.804c38.68,0,342.989,0,389.897,0c1.25,0,2.791-.725,4.041-1.902c1.251-1.177,2.021-2.627,2.021-3.804c0-31.246,0-181.135,0-206.996Z" clip-rule="evenodd" fill-rule="evenodd" stroke-linejoin="round" stroke-miterlimit="2"/></clipPath></g><g clip-path="url(#exz1lWsLZrB30)" clip-rule="evenodd"><g><g id="exz1lWsLZrB20_to" transform="translate(-3.75,112.96)"><g id="exz1lWsLZrB20_ts" transform="scale(0.85,0.782609)"><g transform="translate(0,0)" clip-rule="evenodd"><path d="M175,416.223c0-3.008-1.812-4.861-4.755-4.861-41.247,0-338.139,0-388.113,0-1.471,0-3.284.927-4.755,2.431s-2.377,3.357-2.377,4.861c0,33.963,0,176.183,0,204.353c0,3.008,1.812,4.861,4.755,4.861c41.247,0,338.139,0,388.113,0c1.471,0,3.284-.926,4.755-2.43s2.377-3.357,2.377-4.861c0-33.963,0-176.184,0-204.354Z" clip-rule="evenodd" fill="#4d4d4d" fill-rule="evenodd" stroke-linejoin="round" stroke-miterlimit="2"/><g clip-path="url(#exz1lWsLZrB28)" clip-rule="evenodd"><g><g transform="matrix(.852941 0 0 1 25.7353 0)" clip-rule="evenodd"><g id="exz1lWsLZrB25_to" transform="translate(-25,519.61499)"><path d="M175,416.223c0-3.008-2.125-4.861-5.574-4.861-43.851,0-332.991,0-386.064,0-1.725,0-3.85.927-5.575,2.431s-2.787,3.357-2.787,4.861c0,33.963,0,176.183,0,204.353c0,3.008,2.125,4.861,5.574,4.861c43.851,0,332.991,0,386.064,0c1.725,0,3.85-.926,5.575-2.43s2.787-3.357,2.787-4.861c0-33.963,0-176.184,0-204.354Z" transform="translate(25,-519.61499)" clip-rule="evenodd" fill="#666" fill-rule="evenodd" stroke-linejoin="round" stroke-miterlimit="2"/></g></g><g transform="matrix(1.17647 0 0 0.986842 33.8235-24.8159)" clip-rule="evenodd"><g id="exz1lWsLZrB27_to" transform="translate(-195.394489,546.076831)"><ellipse rx="15" ry="17.321" transform="translate(0,-0.000008)" clip-rule="evenodd" fill="url(#exz1lWsLZrB27-fill)" fill-rule="evenodd" stroke-linejoin="round" stroke-miterlimit="2"/></g></g></g><clipPath id="exz1lWsLZrB28"><path d="M175,416.223c0-3.008-1.812-4.861-4.755-4.861-41.247,0-338.139,0-388.113,0-1.471,0-3.284.927-4.755,2.431s-2.377,3.357-2.377,4.861c0,33.963,0,176.183,0,204.353c0,3.008,1.812,4.861,4.755,4.861c41.247,0,338.139,0,388.113,0c1.471,0,3.284-.926,4.755-2.43s2.377-3.357,2.377-4.861c0-33.963,0-176.184,0-204.354Z" clip-rule="evenodd" fill-rule="evenodd" stroke-linejoin="round" stroke-miterlimit="2"/></clipPath></g></g></g></g></g><clipPath id="exz1lWsLZrB30"><path d="M175,415.166c0-2.354-1.541-3.804-4.041-3.804-38.68,0-342.989,0-389.897,0-1.25,0-2.791.725-4.041,1.902-1.251,1.177-2.021,2.628-2.021,3.805c0,31.246,0,181.134,0,206.995c0,2.354,1.541,3.804,4.041,3.804c38.68,0,342.989,0,389.897,0c1.25,0,2.791-.725,4.041-1.902c1.251-1.177,2.021-2.627,2.021-3.804c0-31.246,0-181.135,0-206.996Z" clip-rule="evenodd" fill-rule="evenodd" stroke-linejoin="round" stroke-miterlimit="2"/></clipPath></g></g><g transform="matrix(.866025-.5 0.92 0.531162-173.892 141.154)" clip-rule="evenodd"><path d="M175,415.166c0-2.354-1.541-3.804-4.041-3.804-38.68,0-342.989,0-389.897,0-1.25,0-2.791.725-4.041,1.902-1.251,1.177-2.021,2.628-2.021,3.805c0,31.246,0,181.134,0,206.995c0,2.354,1.541,3.804,4.041,3.804c38.68,0,342.989,0,389.897,0c1.25,0,2.791-.725,4.041-1.902c1.251-1.177,2.021-2.627,2.021-3.804c0-31.246,0-181.135,0-206.996Z" clip-rule="evenodd" fill="#2f2f2f" fill-rule="evenodd" stroke-linejoin="round" stroke-miterlimit="2"/><g clip-path="url(#exz1lWsLZrB57)" clip-rule="evenodd"><g><g id="exz1lWsLZrB36_to" transform="translate(-147.499599,517.261474)"><g transform="translate(147.499599,-517.261474)"><g transform="matrix(.287504 0 0 0.5-140.312 257.454)" clip-rule="evenodd"><path d="M175,418.971c0-4.709-5.358-7.609-14.057-7.609-59.786,0-293.14,0-364.857,0-4.35,0-9.708,1.45-14.058,3.804-4.349,2.355-7.028,5.255-7.028,7.609c0,38.819,0,165.124,0,197.485c0,4.708,5.358,7.608,14.057,7.608c59.786,0,293.14,0,364.857,0c4.35,0,9.708-1.45,14.058-3.804c4.349-2.354,7.028-5.254,7.028-7.609c0-38.818,0-165.124,0-197.484Z" clip-rule="evenodd" fill="#4d4d4d" fill-rule="evenodd" stroke-linejoin="round" stroke-miterlimit="2"/></g><g transform="matrix(.287504 0 0 0.5-140.312 375.12)" clip-rule="evenodd"><path d="M175,418.971c0-4.709-5.358-7.609-14.057-7.609-59.786,0-293.14,0-364.857,0-4.35,0-9.708,1.45-14.058,3.804-4.349,2.355-7.028,5.255-7.028,7.609c0,38.819,0,165.124,0,197.485c0,4.708,5.358,7.608,14.057,7.608c59.786,0,293.14,0,364.857,0c4.35,0,9.708-1.45,14.058-3.804c4.349-2.354,7.028-5.254,7.028-7.609c0-38.818,0-165.124,0-197.484Z" clip-rule="evenodd" fill="#4d4d4d" fill-rule="evenodd" stroke-linejoin="round" stroke-miterlimit="2"/></g><g transform="matrix(.287504 0 0 0.5-140.312 139.788)" clip-rule="evenodd"><path d="M175,418.971c0-4.709-5.358-7.609-14.057-7.609-59.786,0-293.14,0-364.857,0-4.35,0-9.708,1.45-14.058,3.804-4.349,2.355-7.028,5.255-7.028,7.609c0,38.819,0,165.124,0,197.485c0,4.708,5.358,7.608,14.057,7.608c59.786,0,293.14,0,364.857,0c4.35,0,9.708-1.45,14.058-3.804c4.349-2.354,7.028-5.254,7.028-7.609c0-38.818,0-165.124,0-197.484Z" clip-rule="evenodd" fill="#4d4d4d" fill-rule="evenodd" stroke-linejoin="round" stroke-miterlimit="2"/></g></g></g><g transform="matrix(.375 0 0 0.65217 54.375 288.991)" clip-rule="evenodd"><path d="M175,417.195c0-3.609-4.108-5.833-10.777-5.833-55.237,0-306.585,0-373.057,0-3.335,0-7.443,1.112-10.777,2.917-3.335,1.805-5.389,4.028-5.389,5.833c0,35.979,0,172.025,0,201.923c0,3.61,4.108,5.833,10.777,5.833c55.237,0,306.585,0,373.057,0c3.335,0,7.443-1.111,10.777-2.916c3.335-1.805,5.389-4.029,5.389-5.834c0-35.979,0-172.025,0-201.923Z" clip-rule="evenodd" fill="#666" fill-rule="evenodd" stroke-linejoin="round" stroke-miterlimit="2"/></g><g transform="matrix(.57735 0.543478-1 0.941332 295-87.5439)" clip-rule="evenodd"><g transform="matrix(.649519-.375 1 0.57735-41.1362 23.75)" clip-rule="evenodd"><path d="M-170,480.713c0-2.722-2.582-4.399-6.773-4.399-.001,0-.002,0-.003,0-2.728,0-6.089,1.091-8.816,2.863-2.728,1.772-4.408,3.954-4.408,5.726c0,18.173,0,59.967,0,73.614c0,2.723,2.582,4.4,6.773,4.4.001,0,.002,0,.003,0c2.728,0,6.089-1.092,8.816-2.863c2.728-1.772,4.408-3.955,4.408-5.726c0-18.174,0-59.967,0-73.615Z" clip-rule="evenodd" fill="#666" fill-rule="evenodd" stroke-linejoin="round" stroke-miterlimit="2"/></g><g transform="matrix(.649519-.375 0.7 0.404145 84.4375 116.25)" clip-rule="evenodd"><path d="M-170,482.598c0-3.888-2.582-6.284-6.773-6.284-.001,0-.002,0-.003,0-2.728,0-6.089,1.559-8.816,4.09-2.728,2.531-4.408,5.649-4.408,8.18c0,18.73,0,53.78,0,68.048c0,3.889,2.582,6.285,6.773,6.285.001,0,.002,0,.003,0c2.728,0,6.089-1.56,8.816-4.09c2.728-2.531,4.408-5.65,4.408-8.18c0-18.731,0-53.781,0-68.049Z" clip-rule="evenodd" fill="#666" fill-rule="evenodd" stroke-linejoin="round" stroke-miterlimit="2"/></g></g><g transform="matrix(.57735 0.543478-1 0.941332 295-87.5439)" clip-rule="evenodd"><g transform="matrix(.649519-.375 1 0.57735-85.2067 49.1941)" clip-rule="evenodd"><path d="M-170,480.713c0-2.722-2.582-4.399-6.773-4.399-.001,0-.002,0-.003,0-2.728,0-6.089,1.091-8.816,2.863-2.728,1.772-4.408,3.954-4.408,5.726c0,18.173,0,59.967,0,73.614c0,2.723,2.582,4.4,6.773,4.4.001,0,.002,0,.003,0c2.728,0,6.089-1.092,8.816-2.863c2.728-1.772,4.408-3.955,4.408-5.726c0-18.174,0-59.967,0-73.615Z" clip-rule="evenodd" fill="#4d4d4d" fill-rule="evenodd" stroke-linejoin="round" stroke-miterlimit="2"/></g><g transform="matrix(.649519-.375 0.7 0.404145 40.367 141.694)" clip-rule="evenodd"><path d="M-170,482.598c0-3.888-2.582-6.284-6.773-6.284-.001,0-.002,0-.003,0-2.728,0-6.089,1.559-8.816,4.09-2.728,2.531-4.408,5.649-4.408,8.18c0,18.73,0,53.78,0,68.048c0,3.889,2.582,6.285,6.773,6.285.001,0,.002,0,.003,0c2.728,0,6.089-1.56,8.816-4.09c2.728-2.531,4.408-5.65,4.408-8.18c0-18.731,0-53.781,0-68.049Z" clip-rule="evenodd" fill="#4d4d4d" fill-rule="evenodd" stroke-linejoin="round" stroke-miterlimit="2"/></g></g><g transform="matrix(.75 0 0 0.76087 140 67.7759)" clip-rule="evenodd"><path d="M-170,482.598c0-3.888-2.582-6.284-6.773-6.284-.001,0-.002,0-.003,0-2.728,0-6.089,1.559-8.816,4.09-2.728,2.531-4.408,5.649-4.408,8.18c0,18.73,0,53.78,0,68.048c0,3.889,2.582,6.285,6.773,6.285.001,0,.002,0,.003,0c2.728,0,6.089-1.56,8.816-4.09c2.728-2.531,4.408-5.65,4.408-8.18c0-18.731,0-53.781,0-68.049Z" clip-rule="evenodd" fill="url(#exz1lWsLZrB56-fill)" fill-rule="evenodd" stroke-linejoin="round" stroke-miterlimit="2"/></g></g><clipPath id="exz1lWsLZrB57"><path d="M175,415.166c0-2.354-1.541-3.804-4.041-3.804-38.68,0-342.989,0-389.897,0-1.25,0-2.791.725-4.041,1.902-1.251,1.177-2.021,2.628-2.021,3.805c0,31.246,0,181.134,0,206.995c0,2.354,1.541,3.804,4.041,3.804c38.68,0,342.989,0,389.897,0c1.25,0,2.791-.725,4.041-1.902c1.251-1.177,2.021-2.627,2.021-3.804c0-31.246,0-181.135,0-206.996Z" clip-rule="evenodd" fill-rule="evenodd" stroke-linejoin="round" stroke-miterlimit="2"/></clipPath></g></g><g transform="matrix(.866025-.5 0.92 0.531162 285.101 156.154)" clip-rule="evenodd"><path d="M175,415.166c0-2.354-1.541-3.804-4.041-3.804-38.68,0-342.989,0-389.897,0-1.25,0-2.791.725-4.041,1.902-1.251,1.177-2.021,2.628-2.021,3.805c0,31.246,0,181.134,0,206.995c0,2.354,1.541,3.804,4.041,3.804c38.68,0,342.989,0,389.897,0c1.25,0,2.791-.725,4.041-1.902c1.251-1.177,2.021-2.627,2.021-3.804c0-31.246,0-181.135,0-206.996Z" clip-rule="evenodd" fill="#2f2f2f" fill-rule="evenodd" stroke-linejoin="round" stroke-miterlimit="2"/><g clip-path="url(#exz1lWsLZrB82)" clip-rule="evenodd"><g><g transform="matrix(.25 0 0 1-168.75 0)" clip-rule="evenodd"><path d="M175,415.166c0-2.354-6.162-3.804-16.166-3.804-62.062,0-285.284,0-359.585,0-5.002,0-11.164.725-16.166,1.902s-8.083,2.628-8.083,3.805c0,31.246,0,181.134,0,206.995c0,2.354,6.162,3.804,16.166,3.804c62.062,0,285.284,0,359.585,0c5.002,0,11.164-.725,16.166-1.902s8.083-2.627,8.083-3.804c0-31.246,0-181.135,0-206.996Z" clip-rule="evenodd" fill="#4d4d4d" fill-rule="evenodd" stroke-linejoin="round" stroke-miterlimit="2"/></g><g id="exz1lWsLZrB65_to" transform="translate(-110.109131,519.094406)"><g transform="translate(110.109131,-519.094406)"><g transform="translate(118.835874-.151591)"><g transform="matrix(.287504 0 0 0.5-150.312 257.454)" clip-rule="evenodd"><path d="M175,418.971c0-4.709-5.358-7.609-14.057-7.609-59.786,0-293.14,0-364.857,0-4.35,0-9.708,1.45-14.058,3.804-4.349,2.355-7.028,5.255-7.028,7.609c0,38.819,0,165.124,0,197.485c0,4.708,5.358,7.608,14.057,7.608c59.786,0,293.14,0,364.857,0c4.35,0,9.708-1.45,14.058-3.804c4.349-2.354,7.028-5.254,7.028-7.609c0-38.818,0-165.124,0-197.484Z" clip-rule="evenodd" fill="#666" fill-rule="evenodd" stroke-linejoin="round" stroke-miterlimit="2"/></g><g transform="matrix(.287504 0 0 0.5-15.3124 257.454)" clip-rule="evenodd"><path d="M175,418.971c0-4.709-5.358-7.609-14.057-7.609-59.786,0-293.14,0-364.857,0-4.35,0-9.708,1.45-14.058,3.804-4.349,2.355-7.028,5.255-7.028,7.609c0,38.819,0,165.124,0,197.485c0,4.708,5.358,7.608,14.057,7.608c59.786,0,293.14,0,364.857,0c4.35,0,9.708-1.45,14.058-3.804c4.349-2.354,7.028-5.254,7.028-7.609c0-38.818,0-165.124,0-197.484Z" clip-rule="evenodd" fill="#666" fill-rule="evenodd" stroke-linejoin="round" stroke-miterlimit="2"/></g><g transform="matrix(.287504 0 0 0.5 119.688 257.454)" clip-rule="evenodd"><path d="M175,418.971c0-4.709-5.358-7.609-14.057-7.609-59.786,0-293.14,0-364.857,0-4.35,0-9.708,1.45-14.058,3.804-4.349,2.355-7.028,5.255-7.028,7.609c0,38.819,0,165.124,0,197.485c0,4.708,5.358,7.608,14.057,7.608c59.786,0,293.14,0,364.857,0c4.35,0,9.708-1.45,14.058-3.804c4.349-2.354,7.028-5.254,7.028-7.609c0-38.818,0-165.124,0-197.484Z" clip-rule="evenodd" fill="#666" fill-rule="evenodd" stroke-linejoin="round" stroke-miterlimit="2"/></g></g><g transform="translate(-294.054967 3.817369)"><g transform="matrix(.287504 0 0 0.5-150.312 257.454)" clip-rule="evenodd"><path d="M175,418.971c0-4.709-5.358-7.609-14.057-7.609-59.786,0-293.14,0-364.857,0-4.35,0-9.708,1.45-14.058,3.804-4.349,2.355-7.028,5.255-7.028,7.609c0,38.819,0,165.124,0,197.485c0,4.708,5.358,7.608,14.057,7.608c59.786,0,293.14,0,364.857,0c4.35,0,9.708-1.45,14.058-3.804c4.349-2.354,7.028-5.254,7.028-7.609c0-38.818,0-165.124,0-197.484Z" clip-rule="evenodd" fill="#666" fill-rule="evenodd" stroke-linejoin="round" stroke-miterlimit="2"/></g><g transform="matrix(.287504 0 0 0.5-15.3124 257.454)" clip-rule="evenodd"><path d="M175,418.971c0-4.709-5.358-7.609-14.057-7.609-59.786,0-293.14,0-364.857,0-4.35,0-9.708,1.45-14.058,3.804-4.349,2.355-7.028,5.255-7.028,7.609c0,38.819,0,165.124,0,197.485c0,4.708,5.358,7.608,14.057,7.608c59.786,0,293.14,0,364.857,0c4.35,0,9.708-1.45,14.058-3.804c4.349-2.354,7.028-5.254,7.028-7.609c0-38.818,0-165.124,0-197.484Z" clip-rule="evenodd" fill="#666" fill-rule="evenodd" stroke-linejoin="round" stroke-miterlimit="2"/></g><g transform="matrix(.287504 0 0 0.5 119.688 257.454)" clip-rule="evenodd"><path d="M175,418.971c0-4.709-5.358-7.609-14.057-7.609-59.786,0-293.14,0-364.857,0-4.35,0-9.708,1.45-14.058,3.804-4.349,2.355-7.028,5.255-7.028,7.609c0,38.819,0,165.124,0,197.485c0,4.708,5.358,7.608,14.057,7.608c59.786,0,293.14,0,364.857,0c4.35,0,9.708-1.45,14.058-3.804c4.349-2.354,7.028-5.254,7.028-7.609c0-38.818,0-165.124,0-197.484Z" clip-rule="evenodd" fill="#666" fill-rule="evenodd" stroke-linejoin="round" stroke-miterlimit="2"/></g></g></g></g><g transform="matrix(1 0 0 1.08696 45-346.41)" clip-rule="evenodd"><g id="exz1lWsLZrB81_to" transform="translate(48,886)"><path d="M90,885.896c0-1.578-1.122-2.55-2.944-2.55h-130.443c-1.364,0-3.045.728-4.409,1.909s-2.204,2.637-2.204,3.818c0,.13,0,.258,0,.383c0,1.578,1.122,2.55,2.944,2.55h130.443c1.364,0,3.045-.728,4.409-1.909s2.204-2.637,2.204-3.818c0-.13,0-.258,0-.383Z" transform="translate(-20,-887.675995)" clip-rule="evenodd" fill="url(#exz1lWsLZrB81-fill)" fill-rule="evenodd" stroke-linejoin="round" stroke-miterlimit="2"/></g></g></g><clipPath id="exz1lWsLZrB82"><path d="M175,415.166c0-2.354-1.541-3.804-4.041-3.804-38.68,0-342.989,0-389.897,0-1.25,0-2.791.725-4.041,1.902-1.251,1.177-2.021,2.628-2.021,3.805c0,31.246,0,181.134,0,206.995c0,2.354,1.541,3.804,4.041,3.804c38.68,0,342.989,0,389.897,0c1.25,0,2.791-.725,4.041-1.902c1.251-1.177,2.021-2.627,2.021-3.804c0-31.246,0-181.135,0-206.996Z" clip-rule="evenodd" fill-rule="evenodd" stroke-linejoin="round" stroke-miterlimit="2"/></clipPath></g></g></svg>
